<svg width="30" height="33" viewBox="0 0 30 33" fill="none" xmlns="http://www.w3.org/2000/svg">
<path fill-rule="evenodd" clip-rule="evenodd" d="M0.627628 15.6276C1.46447 14.7908 2.82125 14.7908 3.65809 15.6276L15 26.9695L26.3419 15.6276C27.1788 14.7908 28.5355 14.7908 29.3724 15.6276C30.2092 16.4645 30.2092 17.8212 29.3724 18.6581L16.5152 31.5152C15.6784 32.3521 14.3216 32.3521 13.4848 31.5152L0.627628 18.6581C-0.209209 17.8212 -0.209209 16.4645 0.627628 15.6276Z" fill="#B0B0AF"/>
<path fill-rule="evenodd" clip-rule="evenodd" d="M15 0C16.1835 0 17.1429 0.95939 17.1429 2.14286V28.2143C17.1429 29.3978 16.1835 30.3571 15 30.3571C13.8166 30.3571 12.8572 29.3978 12.8572 28.2143V2.14286C12.8572 0.95939 13.8166 0 15 0Z" fill="#B0B0AF"/>
</svg>
