<svg id="f191ebe9-14c3-46b4-af37-e28447fb9683" data-name="Layer 1" xmlns="http://www.w3.org/2000/svg" viewBox="0 0 131 64"><title>detector-media</title><path d="M129.69,31.11h-4.12v1.37l2.8.82v0l-2.8.82v1.37h4.12v-.95h-2.53c-.22,0-.48,0-.48,0v0l3-.89v-.73l-3-.89v0l.48,0h2.53Zm-3.34-3.17c0-.31.21-.7.87-.76v1.54c-.54,0-.87-.31-.87-.78m-.89,0a1.87,1.87,0,0,0,2.08,1.81c1.7,0,2.26-.82,2.26-1.88a1.65,1.65,0,0,0-1.32-1.65v1a.65.65,0,0,1,.45.64c0,.8-.7.86-1,.86V26.17h-.41c-1.42,0-2.05.7-2.05,1.76m3.37-4.23a3.44,3.44,0,0,0-1.89-.34h-.51v-1h2.4Zm.87-2.78h-.87v.45h-3.26v2.91h1.12a4.25,4.25,0,0,1,2.14.4v.41h.87Zm-4.13-1.3h4.12v-1h-4.12ZM4.81,28.51c0-7.43,3.91-7.81,3.91-7.81h.34v7.81ZM1.2,30.57H12.52V28.51H11.41V18.65H9.27s-6.79-.22-6.79,9.86H1.2Zm14-9.85h9.19V18.65H15.17Zm0,4.93h9.19V23.58H15.17Zm0,4.93h9.19V28.51H15.17ZM31.88,20.7H35.3V18.65H26.11V20.7h3.42v9.86h2.35Zm5.12,0h9.18V18.65H37Zm0,4.93h9.18V23.58H37Zm0,4.93h9.18V28.51H37Zm22,0-4.88-7,4.61-4.87H55.72L51.4,23.49V18.65H49V30.56H51.4v-4l1.11-1.2L56,30.56Zm6.33-9.86h3.41V18.65H59.6V20.7H63v9.86h2.36Zm12.48,3.91c0,3.33-1.79,4.16-3.07,4.16s-3.07-.83-3.07-4.16,1.79-4.17,3.07-4.17,3.07.83,3.07,4.17m2.36,0c0-5.59-3.93-6.27-5.43-6.27s-5.43.68-5.43,6.27,3.93,6.27,5.43,6.27,5.43-.69,5.43-6.27m8.3-2.25a1.61,1.61,0,0,1-1.76,1.85h-2.2V20.7h1.89c1.46,0,2.07.49,2.07,1.66m2.36.1c0-2.35-1.31-3.81-3.5-3.81H82.2V30.56h2.35v-4.3h2.71a3.59,3.59,0,0,0,3.61-3.8M129,15.82a.45.45,0,0,1-.5.46c-.45,0-.56-.3-.62-.67a1.35,1.35,0,0,0-.23-.68h.53a.86.86,0,0,1,.82.89m.17-.92a1.85,1.85,0,0,0,.49-.09V13.75h-.17c0,.12-.15.22-.63.22h-2.24c-1,0-1.19,1-1.19,1.5,0,.77.18,1.57,1.44,1.68v-1a.55.55,0,0,1-.58-.61c0-.25,0-.65.49-.65.2,0,.32.16.36.58.08.94.47,1.76,1.43,1.76a1.1,1.1,0,0,0,1.2-1.15,1.52,1.52,0,0,0-.6-1.22" fill="#231f20"/><path d="M121.68,45.63V13.71h-2.33l-8.82,23.92-8.8-23.92H99.64V33.44H1.2v2.07H101.71V19.34l7.76,21.09h2.11l7.8-21.15V45.63a2.48,2.48,0,1,0,2.3,0" fill="#ed1c24"/></svg>