<?xml version="1.0" encoding="UTF-8"?><svg version="1.1" viewBox="0 0 24 24" xmlns="http://www.w3.org/2000/svg" xmlns:xlink="http://www.w3.org/1999/xlink"><!--Generated by IJSVG (https://github.com/iconjar/IJSVG)--><path d="M0,0h24v24h-24Z" fill="none"></path><path fill="#000" d="M12,2c-5.523,0 -10,4.477 -10,10c0,4.991 3.657,9.128 8.438,9.879v-6.989h-2.54v-2.89h2.54v-2.203c0,-2.506 1.492,-3.89 3.777,-3.89c1.094,0 2.238,0.195 2.238,0.195v2.46h-1.26c-1.243,0 -1.63,0.771 -1.63,1.562v1.876h2.773l-0.443,2.89h-2.33v6.989c4.78,-0.75 8.437,-4.889 8.437,-9.879c0,-5.523 -4.477,-10 -10,-10Z"></path></svg>