<svg width="558" height="567" viewBox="0 0 558 567" fill="none" xmlns="http://www.w3.org/2000/svg">
<path d="M217.108 262.472H249.15V290H239.197V269.428H227.098V290H217.108V262.472Z" fill="white"/>
<path d="M267.583 281.786V290H257.593V262.472H277.684C280.249 262.472 282.358 262.706 284.011 263.175C285.688 263.619 287.008 264.26 287.97 265.099C288.956 265.913 289.635 266.887 290.005 268.022C290.399 269.157 290.597 270.402 290.597 271.759V272.24C290.597 273.621 290.399 274.892 290.005 276.051C289.61 277.21 288.919 278.222 287.933 279.085C286.946 279.924 285.626 280.59 283.974 281.083C282.321 281.552 280.224 281.786 277.684 281.786H267.583ZM267.583 274.756H276.759C278.115 274.756 279.028 274.497 279.497 273.979C279.99 273.461 280.237 272.844 280.237 272.129V272.055C280.237 271.734 280.175 271.426 280.052 271.13C279.953 270.809 279.768 270.526 279.497 270.279C279.25 270.032 278.892 269.847 278.424 269.724C277.98 269.576 277.425 269.502 276.759 269.502H267.583V274.756Z" fill="white"/>
<path d="M325.135 262.472V269.132H307.597V272.647H324.58V279.492H307.597V283.266H325.394V290H297.644V262.472H325.135Z" fill="white"/>
<path d="M333.178 262.472H346.942L354.379 278.197L361.964 262.472H375.136V290H365.368V272.795L357.191 290H350.901L342.798 272.795V290H333.178V262.472Z" fill="white"/>
<path d="M393.553 290H383.563V262.472H393.553V290Z" fill="white"/>
<path d="M420.322 281.342L411.812 290H399.972L409.629 280.195C406.989 279.776 404.954 278.863 403.524 277.457C402.118 276.051 401.415 274.201 401.415 271.907V271.537C401.415 270.254 401.649 269.07 402.118 267.985C402.611 266.875 403.339 265.913 404.301 265.099C405.287 264.285 406.496 263.644 407.927 263.175C409.382 262.706 411.072 262.472 412.996 262.472H436.047V290H426.094V281.342H420.322ZM426.094 269.502H415.031C413.847 269.502 413.02 269.724 412.552 270.168C412.083 270.587 411.849 271.13 411.849 271.796V271.87C411.849 272.585 412.083 273.165 412.552 273.609C413.045 274.028 413.871 274.238 415.031 274.238H426.094V269.502Z" fill="white"/>
<path d="M227.098 340H217.108V312.472H227.098V340Z" fill="white"/>
<path d="M235.552 312.472H249.316L256.753 328.197L264.338 312.472H277.51V340H267.742V322.795L259.565 340H253.275L245.172 322.795V340H235.552V312.472Z" fill="white"/>
<path d="M313.428 312.472V319.132H295.89V322.647H312.873V329.492H295.89V333.266H313.687V340H285.937V312.472H313.428Z" fill="white"/>
<path d="M321.471 312.472H331.461V322.166H345.41V312.472H355.363V340H345.41V329.566H331.461V340H321.471V312.472Z" fill="white"/>
<path d="M373.788 340H363.798V312.472H373.788V340Z" fill="white"/>
<path d="M217.108 362.472H242.416V369.428H227.098V390H217.108V362.472Z" fill="white"/>
<path d="M276.014 362.472V369.132H258.476V372.647H275.459V379.492H258.476V383.266H276.273V390H248.523V362.472H276.014Z" fill="white"/>
<path d="M302.225 361.991C304.667 361.991 306.8 362.201 308.626 362.62C310.451 363.015 312.017 363.557 313.325 364.248C314.657 364.939 315.742 365.74 316.581 366.653C317.444 367.566 318.122 368.528 318.616 369.539C319.109 370.55 319.454 371.586 319.652 372.647C319.849 373.683 319.948 374.67 319.948 375.607V376.717C319.948 377.654 319.849 378.653 319.652 379.714C319.454 380.75 319.109 381.774 318.616 382.785C318.122 383.796 317.444 384.771 316.581 385.708C315.742 386.645 314.669 387.472 313.362 388.187C312.054 388.878 310.476 389.433 308.626 389.852C306.8 390.271 304.667 390.481 302.225 390.481H300.56C298.118 390.481 295.984 390.271 294.159 389.852C292.333 389.433 290.767 388.878 289.46 388.187C288.152 387.472 287.067 386.645 286.204 385.708C285.34 384.771 284.662 383.796 284.169 382.785C283.675 381.774 283.33 380.75 283.133 379.714C282.935 378.653 282.837 377.654 282.837 376.717V375.607C282.837 374.645 282.935 373.646 283.133 372.61C283.33 371.574 283.675 370.55 284.169 369.539C284.687 368.528 285.365 367.566 286.204 366.653C287.067 365.74 288.152 364.939 289.46 364.248C290.767 363.557 292.333 363.015 294.159 362.62C295.984 362.201 298.118 361.991 300.56 361.991H302.225ZM309.514 375.903C309.514 375.237 309.415 374.534 309.218 373.794C309.02 373.029 308.626 372.326 308.034 371.685C307.466 371.044 306.652 370.513 305.592 370.094C304.531 369.675 303.125 369.465 301.374 369.465C299.622 369.465 298.216 369.675 297.156 370.094C296.095 370.513 295.281 371.044 294.714 371.685C294.146 372.326 293.764 373.029 293.567 373.794C293.369 374.534 293.271 375.237 293.271 375.903V376.31C293.271 376.976 293.369 377.691 293.567 378.456C293.764 379.221 294.159 379.936 294.751 380.602C295.343 381.268 296.169 381.823 297.23 382.267C298.29 382.686 299.684 382.896 301.411 382.896C303.137 382.896 304.531 382.686 305.592 382.267C306.652 381.823 307.466 381.268 308.034 380.602C308.626 379.936 309.02 379.221 309.218 378.456C309.415 377.691 309.514 376.976 309.514 376.31V375.903Z" fill="white"/>
<path d="M337.17 381.786V390H327.18V362.472H347.271C349.836 362.472 351.945 362.706 353.598 363.175C355.275 363.619 356.595 364.26 357.557 365.099C358.544 365.913 359.222 366.887 359.592 368.022C359.987 369.157 360.184 370.402 360.184 371.759V372.24C360.184 373.621 359.987 374.892 359.592 376.051C359.197 377.21 358.507 378.222 357.52 379.085C356.533 379.924 355.214 380.59 353.561 381.083C351.908 381.552 349.812 381.786 347.271 381.786H337.17ZM337.17 374.756H346.346C347.703 374.756 348.615 374.497 349.084 373.979C349.577 373.461 349.824 372.844 349.824 372.129V372.055C349.824 371.734 349.762 371.426 349.639 371.13C349.54 370.809 349.355 370.526 349.084 370.279C348.837 370.032 348.48 369.847 348.011 369.724C347.567 369.576 347.012 369.502 346.346 369.502H337.17V374.756Z" fill="white"/>
<path d="M367.231 362.472H392.539V369.428H377.221V390H367.231V362.472Z" fill="white"/>
<path d="M408.636 390H398.646V362.472H408.636V390Z" fill="white"/>
<path d="M435.405 381.342L426.895 390H415.055L424.712 380.195C422.073 379.776 420.038 378.863 418.607 377.457C417.201 376.051 416.498 374.201 416.498 371.907V371.537C416.498 370.254 416.732 369.07 417.201 367.985C417.694 366.875 418.422 365.913 419.384 365.099C420.371 364.285 421.579 363.644 423.01 363.175C424.465 362.706 426.155 362.472 428.079 362.472H451.13V390H441.177V381.342H435.405ZM441.177 369.502H430.114C428.93 369.502 428.104 369.724 427.635 370.168C427.166 370.587 426.932 371.13 426.932 371.796V371.87C426.932 372.585 427.166 373.165 427.635 373.609C428.128 374.028 428.955 374.238 430.114 374.238H441.177V369.502Z" fill="white"/>
<path d="M217.108 412.472H233.277V407.477H242.416V419.428H227.098V440H217.108V412.472Z" fill="white"/>
<path d="M266.69 411.991C269.132 411.991 271.266 412.201 273.091 412.62C274.917 413.015 276.483 413.557 277.79 414.248C279.122 414.939 280.208 415.74 281.046 416.653C281.91 417.566 282.588 418.528 283.081 419.539C283.575 420.55 283.92 421.586 284.117 422.647C284.315 423.683 284.413 424.67 284.413 425.607V426.717C284.413 427.654 284.315 428.653 284.117 429.714C283.92 430.75 283.575 431.774 283.081 432.785C282.588 433.796 281.91 434.771 281.046 435.708C280.208 436.645 279.135 437.472 277.827 438.187C276.52 438.878 274.941 439.433 273.091 439.852C271.266 440.271 269.132 440.481 266.69 440.481H265.025C262.583 440.481 260.45 440.271 258.624 439.852C256.799 439.433 255.233 438.878 253.925 438.187C252.618 437.472 251.533 436.645 250.669 435.708C249.806 434.771 249.128 433.796 248.634 432.785C248.141 431.774 247.796 430.75 247.598 429.714C247.401 428.653 247.302 427.654 247.302 426.717V425.607C247.302 424.645 247.401 423.646 247.598 422.61C247.796 421.574 248.141 420.55 248.634 419.539C249.152 418.528 249.831 417.566 250.669 416.653C251.533 415.74 252.618 414.939 253.925 414.248C255.233 413.557 256.799 413.015 258.624 412.62C260.45 412.201 262.583 411.991 265.025 411.991H266.69ZM273.979 425.903C273.979 425.237 273.881 424.534 273.683 423.794C273.486 423.029 273.091 422.326 272.499 421.685C271.932 421.044 271.118 420.513 270.057 420.094C268.997 419.675 267.591 419.465 265.839 419.465C264.088 419.465 262.682 419.675 261.621 420.094C260.561 420.513 259.747 421.044 259.179 421.685C258.612 422.326 258.23 423.029 258.032 423.794C257.835 424.534 257.736 425.237 257.736 425.903V426.31C257.736 426.976 257.835 427.691 258.032 428.456C258.23 429.221 258.624 429.936 259.216 430.602C259.808 431.268 260.635 431.823 261.695 432.267C262.756 432.686 264.15 432.896 265.876 432.896C267.603 432.896 268.997 432.686 270.057 432.267C271.118 431.823 271.932 431.268 272.499 430.602C273.091 429.936 273.486 429.221 273.683 428.456C273.881 427.691 273.979 426.976 273.979 426.31V425.903Z" fill="white"/>
<path d="M291.646 412.472H301.636V422.166H315.585V412.472H325.538V440H315.585V429.566H301.636V440H291.646V412.472Z" fill="white"/>
<path d="M333.973 412.472H350.142V407.477H359.281V419.428H343.963V440H333.973V412.472Z" fill="white"/>
<path d="M377.863 419.687L373.682 429.085H382.118L377.863 419.687ZM385.004 435.523H370.759L368.761 440H358.808L371.536 412.472H384.597L397.621 440H387.039L385.004 435.523Z" fill="white"/>
<path d="M403.727 433.044C404.121 432.156 404.479 431.194 404.8 430.158C405.12 429.097 405.392 427.802 405.614 426.273C405.836 424.719 406.008 422.844 406.132 420.649C406.255 418.429 406.317 415.703 406.317 412.472H436.065V433.044H440.505V444.625H431.366V440H409.61V444.625H400.471V433.044H403.727ZM426.075 433.044V419.428H415.419C415.419 421.377 415.345 423.066 415.197 424.497C415.073 425.928 414.901 427.186 414.679 428.271C414.481 429.332 414.247 430.244 413.976 431.009C413.729 431.774 413.482 432.452 413.236 433.044H426.075Z" fill="white"/>
<path d="M480.429 432.082C480.429 433.562 480.047 434.832 479.282 435.893C478.518 436.929 477.42 437.792 475.989 438.483C474.559 439.174 472.807 439.679 470.735 440C468.688 440.321 466.369 440.481 463.779 440.481H462.891C460.375 440.481 458.032 440.308 455.861 439.963C453.691 439.593 451.816 439.001 450.237 438.187C448.659 437.373 447.413 436.312 446.5 435.005C445.612 433.698 445.168 432.094 445.168 430.195V429.973H455.676C455.676 431.478 456.318 432.538 457.6 433.155C458.908 433.772 460.918 434.08 463.631 434.08C467.899 434.08 470.032 433.18 470.032 431.379C470.032 430.491 469.601 429.874 468.737 429.529C467.899 429.184 466.69 429.011 465.111 429.011H458.229V422.832H464.519C465.925 422.832 466.998 422.696 467.738 422.425C468.503 422.154 468.885 421.623 468.885 420.834C468.885 420.464 468.787 420.131 468.589 419.835C468.417 419.514 468.096 419.255 467.627 419.058C467.183 418.861 466.579 418.713 465.814 418.614C465.074 418.491 464.149 418.429 463.039 418.429C462.028 418.429 461.091 418.491 460.227 418.614C459.364 418.737 458.612 418.935 457.97 419.206C457.329 419.477 456.823 419.847 456.453 420.316C456.108 420.785 455.923 421.364 455.898 422.055H445.39V421.759C445.39 420.032 445.822 418.565 446.685 417.356C447.573 416.123 448.794 415.124 450.348 414.359C451.902 413.594 453.728 413.039 455.824 412.694C457.921 412.324 460.19 412.139 462.632 412.139H463.816C466.283 412.139 468.478 412.299 470.402 412.62C472.326 412.916 473.942 413.372 475.249 413.989C476.581 414.606 477.593 415.358 478.283 416.246C478.974 417.134 479.319 418.158 479.319 419.317V419.576C479.319 420.464 479.171 421.229 478.875 421.87C478.604 422.511 478.234 423.054 477.765 423.498C477.297 423.942 476.742 424.312 476.1 424.608C475.484 424.904 474.83 425.151 474.139 425.348C474.879 425.496 475.619 425.73 476.359 426.051C477.124 426.372 477.802 426.791 478.394 427.309C478.986 427.827 479.467 428.456 479.837 429.196C480.232 429.911 480.429 430.75 480.429 431.712V432.082Z" fill="white"/>
<path d="M514.839 412.472V419.132H497.301V422.647H514.284V429.492H497.301V433.266H515.098V440H487.348V412.472H514.839Z" fill="white"/>
<path d="M258.286 86H39V305.485H82.8571V129.897H258.286V86Z" fill="white"/>
<path d="M302.143 86V173.794H126.714V481.074H170.571V217.691H346V86H302.143Z" fill="white"/>
</svg>
