<svg width="20" height="17" viewBox="0 0 20 17" fill="none" xmlns="http://www.w3.org/2000/svg">
<path d="M20 1.92976C19.2563 2.25703 18.4637 2.47396 17.6375 2.57929C18.4875 2.0702 19.1363 1.27021 19.4412 0.305953C18.6488 0.77993 17.7738 1.11472 16.8412 1.30155C16.0887 0.497801 15.0162 0 13.8462 0C11.5763 0 9.74875 1.84826 9.74875 4.11407C9.74875 4.44008 9.77625 4.75356 9.84375 5.05199C6.435 4.88522 3.41875 3.24636 1.3925 0.749836C1.03875 1.3655 0.83125 2.0702 0.83125 2.82881C0.83125 4.25325 1.5625 5.51593 2.6525 6.24696C1.99375 6.23442 1.3475 6.04257 0.8 5.74038C0.8 5.75292 0.8 5.76922 0.8 5.78552C0.8 7.78425 2.22125 9.44442 4.085 9.82686C3.75125 9.9184 3.3875 9.96229 3.01 9.96229C2.7475 9.96229 2.4825 9.94724 2.23375 9.89207C2.765 11.5209 4.2725 12.7184 6.065 12.7572C4.67 13.8519 2.89875 14.5115 0.98125 14.5115C0.645 14.5115 0.3225 14.4964 0 14.455C1.81625 15.6299 3.96875 16.3008 6.29 16.3008C13.835 16.3008 17.96 10.0312 17.96 4.59682C17.96 4.415 17.9538 4.23946 17.945 4.06516C18.7588 3.48586 19.4425 2.76236 20 1.92976Z" fill="#4A4A49"/>
</svg>
