<svg id="a5271711-55ec-47f1-a8ab-85b57af4e692" data-name="Слой 1" xmlns="http://www.w3.org/2000/svg" viewBox="0 0 151.89 64"><title>internews-ukraine</title><polygon points="111.78 23.46 111.78 34.88 120.1 34.88 120.1 32.27 114.8 32.27 114.8 30.41 119.51 30.41 119.51 27.82 114.8 27.82 114.8 26.07 120 26.07 120 23.46 111.78 23.46" fill="#0f4496"/><polygon points="135.7 23.46 133.76 31.49 131.59 23.46 128.95 23.46 126.78 31.49 124.84 23.46 121.58 23.46 125.07 34.88 128.33 34.88 130.27 27.82 132.21 34.88 135.47 34.88 138.96 23.46 135.7 23.46" fill="#0f4496"/><polygon points="63.61 46.3 63.61 44.1 64.32 44.1 65.71 46.3 67.38 46.3 65.51 43.37 67.3 40.59 65.63 40.59 64.33 42.75 63.61 42.75 63.61 40.59 62.1 40.59 62.1 46.3 63.61 46.3" fill="#0f4496"/><rect x="113.18" y="40.59" width="1.51" height="5.71" fill="#0f4496"/><polygon points="144.64 40.59 144.64 46.3 148.8 46.3 148.8 44.99 146.15 44.99 146.15 44.06 148.51 44.06 148.51 42.77 146.15 42.77 146.15 41.89 148.76 41.89 148.76 40.59 144.64 40.59" fill="#0f4496"/><path d="M45.53,34.88h3V23.46h-3Zm9,0V30.21c0-.63,0-1.33-.06-1.87l4.47,6.54h2.85V23.46h-3v4.67c0,.63,0,1.35.07,1.89l-4.47-6.56H51.5V34.88Zm9.34-11.42v2.69h3.23v8.73h3V26.15h3.21V23.46Zm11.38,0V34.88h8.32V32.27h-5.3V30.41H83V27.82H78.25V26.07h5.2V23.46Z" fill="#0f4496"/><path d="M101.33,34.88V30.21c0-.63,0-1.33-.06-1.87l4.47,6.54h2.85V23.46h-3v4.67c0,.63,0,1.35.07,1.89l-4.47-6.56H98.32V34.88Z" fill="#0f4496"/><path d="M89.2,34.88V31.16h1.31l2.72,3.72h3.41l-3.15-4.14a3.4,3.4,0,0,0,2.19-3.43c0-3-2.38-3.85-4.68-3.85H86.19V34.88Zm0-8.81h1.93c.86,0,1.45.43,1.45,1.32s-.59,1.32-1.45,1.32H89.2Z" fill="#0f4496"/><path d="M139.81,26.58c0,4.07,5.94,3.52,5.94,5.17,0,.57-.51.76-1.7.76a7.43,7.43,0,0,1-4.16-1.29v2.86a9.16,9.16,0,0,0,4.39,1c2.49,0,4.57-.78,4.57-3.49,0-4.06-5.94-3.59-5.94-5.07,0-.44.34-.72,1.45-.73A5.88,5.88,0,0,1,148,26.9V24.13a8,8,0,0,0-3.83-.91c-2.35,0-4.31,1.07-4.31,3.36" fill="#0f4496"/><path d="M49.41,40.59V44c0,.78-.42,1-1.06,1s-1.07-.26-1.07-1V40.59h-1.5v3.53c0,1.72,1.3,2.3,2.57,2.3a2.26,2.26,0,0,0,2.57-2.3V40.59Z" fill="#0f4496"/><path d="M80,46.3V44.44h.65l1.37,1.86h1.71l-1.58-2.07a1.69,1.69,0,0,0,1.09-1.72c0-1.5-1.19-1.92-2.34-1.92H78.52V46.3Zm0-4.41h1c.43,0,.72.21.72.66s-.29.66-.72.66H80Z" fill="#0f4496"/><path d="M96,46.3l.33-.9h2.37l.32.9h1.56l-2.25-5.71H96.72L94.47,46.3Zm1.37-3.77a2.88,2.88,0,0,0,.15-.58,2.43,2.43,0,0,0,.14.58l.59,1.65H96.8Z" fill="#0f4496"/><path d="M129.27,46.3V44a9.11,9.11,0,0,0,0-.93l2.24,3.27h1.43V40.59h-1.51v2.33c0,.32,0,.68,0,.95l-2.24-3.28h-1.42V46.3Z" fill="#0f4496"/><path d="M17.61,40.61A63.16,63.16,0,0,1,6.78,38.12c2.73-2.29,8.41-5.14,15.76-8.69,8.1-3.92,14.5-7,12.16-9.89-.29-.28-.63-.59-1-.9s-.69-.61-1-.86A10.7,10.7,0,0,0,31.56,17a11.3,11.3,0,0,0-1.22-.74l-.92-.47a22.89,22.89,0,0,0-2.27-.91,10.71,10.71,0,0,1,3.56,2.4C30.58,19.07,25.42,21.49,18,25,6.21,30.48,3,32.66,3.05,35.11c.05.34.13.74.22,1.13s.16.79.25,1.13A11.63,11.63,0,0,0,4,38.78a10.46,10.46,0,0,0,.55,1.36c.09.2.2.43.32.66s.23.45.33.65C6.42,43.22,9.78,44.29,18,45.57c7,1.09,12.62,2.14,11.46,3.59a17.34,17.34,0,0,0,5-3.57c-1.64-2.55-7.65-3.38-16.87-5" fill="#0f4496"/><polygon points="111.78 23.46 111.78 34.88 120.1 34.88 120.1 32.27 114.8 32.27 114.8 30.41 119.51 30.41 119.51 27.82 114.8 27.82 114.8 26.07 120 26.07 120 23.46 111.78 23.46" fill="#0f4496"/><polygon points="135.7 23.46 133.76 31.49 131.59 23.46 128.95 23.46 126.78 31.49 124.84 23.46 121.58 23.46 125.07 34.88 128.33 34.88 130.27 27.82 132.21 34.88 135.47 34.88 138.96 23.46 135.7 23.46" fill="#0f4496"/><polygon points="63.61 46.3 63.61 44.1 64.32 44.1 65.71 46.3 67.38 46.3 65.51 43.37 67.3 40.59 65.63 40.59 64.33 42.75 63.61 42.75 63.61 40.59 62.1 40.59 62.1 46.3 63.61 46.3" fill="#0f4496"/><rect x="113.18" y="40.59" width="1.51" height="5.71" fill="#0f4496"/><polygon points="144.64 40.59 144.64 46.3 148.8 46.3 148.8 44.99 146.15 44.99 146.15 44.06 148.51 44.06 148.51 42.77 146.15 42.77 146.15 41.89 148.76 41.89 148.76 40.59 144.64 40.59" fill="#0f4496"/><path d="M45.53,34.88h3V23.46h-3Zm9,0V30.21c0-.63,0-1.33-.06-1.87l4.47,6.54h2.85V23.46h-3v4.67c0,.63,0,1.35.07,1.89l-4.47-6.56H51.5V34.88Zm9.34-11.42v2.69h3.23v8.73h3V26.15h3.21V23.46Zm11.38,0V34.88h8.32V32.27h-5.3V30.41H83V27.82H78.25V26.07h5.2V23.46Z" fill="#0f4496"/><path d="M101.33,34.88V30.21c0-.63,0-1.33-.06-1.87l4.47,6.54h2.85V23.46h-3v4.67c0,.63,0,1.35.07,1.89l-4.47-6.56H98.32V34.88Z" fill="#0f4496"/><path d="M89.2,34.88V31.16h1.31l2.72,3.72h3.41l-3.15-4.14a3.4,3.4,0,0,0,2.19-3.43c0-3-2.38-3.85-4.68-3.85H86.19V34.88Zm0-8.81h1.93c.86,0,1.45.43,1.45,1.32s-.59,1.32-1.45,1.32H89.2Z" fill="#0f4496"/><path d="M139.81,26.58c0,4.07,5.94,3.52,5.94,5.17,0,.57-.51.76-1.7.76a7.43,7.43,0,0,1-4.16-1.29v2.86a9.16,9.16,0,0,0,4.39,1c2.49,0,4.57-.78,4.57-3.49,0-4.06-5.94-3.59-5.94-5.07,0-.44.34-.72,1.45-.73A5.88,5.88,0,0,1,148,26.9V24.13a8,8,0,0,0-3.83-.91c-2.35,0-4.31,1.07-4.31,3.36" fill="#0f4496"/><path d="M49.41,40.59V44c0,.78-.42,1-1.06,1s-1.07-.26-1.07-1V40.59h-1.5v3.53c0,1.72,1.3,2.3,2.57,2.3a2.26,2.26,0,0,0,2.57-2.3V40.59Z" fill="#0f4496"/><path d="M80,46.3V44.44h.65l1.37,1.86h1.71l-1.58-2.07a1.69,1.69,0,0,0,1.09-1.72c0-1.5-1.19-1.92-2.34-1.92H78.52V46.3Zm0-4.41h1c.43,0,.72.21.72.66s-.29.66-.72.66H80Z" fill="#0f4496"/><path d="M96,46.3l.33-.9h2.37l.32.9h1.56l-2.25-5.71H96.72L94.47,46.3Zm1.37-3.77a2.88,2.88,0,0,0,.15-.58,2.43,2.43,0,0,0,.14.58l.59,1.65H96.8Z" fill="#0f4496"/><path d="M129.27,46.3V44a9.11,9.11,0,0,0,0-.93l2.24,3.27h1.43V40.59h-1.51v2.33c0,.32,0,.68,0,.95l-2.24-3.28h-1.42V46.3Z" fill="#0f4496"/><path d="M17.61,40.61A63.16,63.16,0,0,1,6.78,38.12c2.73-2.29,8.41-5.14,15.76-8.69,8.1-3.92,14.5-7,12.16-9.89-.29-.28-.63-.59-1-.9s-.69-.61-1-.86A10.7,10.7,0,0,0,31.56,17a11.3,11.3,0,0,0-1.22-.74l-.92-.47a22.89,22.89,0,0,0-2.27-.91,10.71,10.71,0,0,1,3.56,2.4C30.58,19.07,25.42,21.49,18,25,6.21,30.48,3,32.66,3.05,35.11c.05.34.13.74.22,1.13s.16.79.25,1.13A11.63,11.63,0,0,0,4,38.78a10.46,10.46,0,0,0,.55,1.36c.09.2.2.43.32.66s.23.45.33.65C6.42,43.22,9.78,44.29,18,45.57c7,1.09,12.62,2.14,11.46,3.59a17.34,17.34,0,0,0,5-3.57c-1.64-2.55-7.65-3.38-16.87-5" fill="#0f4496"/></svg>