<svg width="99" height="31" viewBox="0 0 99 31" fill="none" xmlns="http://www.w3.org/2000/svg">
<path fill-rule="evenodd" clip-rule="evenodd" d="M20.2347 25.4892C20.7012 25.8751 21.4659 26.0247 21.9276 26.0247H22.1199C21.8097 27.5681 21.3096 28.6041 20.8022 29.1372C20.2972 29.6681 19.4893 29.9323 18.388 29.9323H13.4417C13.6605 29.5044 13.9587 28.8426 14.0693 28.4614C14.1872 28.0896 14.2737 27.6383 14.2737 27.3109C14.2737 27.0958 14.2497 26.8736 14.1968 26.6327C14.1439 26.3942 14.0669 26.1089 13.9467 25.7862L10.8448 17.8775L8.5171 21.3385V23.4524C8.5171 24.5141 8.65657 25.2039 8.93791 25.5337C9.21924 25.861 9.7723 26.0715 10.5923 26.1534C10.0536 27.8604 9.57272 28.9151 9.14951 29.3196C8.7263 29.7312 7.9929 29.9323 6.94209 29.9323H1.17104C1.47883 29.0297 1.71448 28.2135 1.87319 27.4676C2.03429 26.7286 2.11605 26.0575 2.11605 25.4495V6.44246C2.11605 5.40652 1.96456 4.71668 1.66158 4.37058C1.361 4.02215 0.810351 3.81871 0 3.75557C0.526608 2.0672 0.99791 1.01723 1.4115 0.612677C1.83471 0.203446 2.57292 0 3.65019 0H9.42364C9.12787 0.741292 8.90665 1.48492 8.74794 2.24025C8.59645 2.99089 8.5171 3.74388 8.5171 4.48517V17.0825C8.5171 17.0825 12.4919 10.8575 13.1484 10.0343C13.8048 9.20886 14.3988 8.76689 15.0552 8.45821C15.7117 8.14954 16.5124 7.99754 17.4815 7.99754C19.0444 7.99754 20.5185 8.4816 21.2831 7.73797C21.6583 9.25797 20.7156 12.2559 18.5828 12.2559C17.2626 12.2559 16.5172 11.3298 15.6251 12.1974C15.3414 12.4734 14.8917 12.9995 14.8917 12.9995L19.1118 23.5226C19.458 24.4252 19.761 25.1034 20.2347 25.4892ZM55.0942 23.452C55.0942 24.5019 55.2385 25.1988 55.5271 25.5332C55.8156 25.8746 56.3422 26.0757 57.0973 26.1389C56.5586 27.8904 56.0922 28.959 55.693 29.3519C55.2914 29.7377 54.5965 29.9318 53.5914 29.9318H47.8035C48.1113 29.0432 48.3421 28.2248 48.5008 27.4811C48.6499 26.7328 48.7293 26.057 48.7293 25.4513V14.7272C48.7293 13.5065 48.5249 12.6155 48.1257 12.0449C47.7193 11.4767 47.0941 11.1914 46.2477 11.1914C45.2378 11.1914 44.5164 11.5515 44.0884 12.2671C43.6628 12.9827 43.4464 14.215 43.4464 15.9712V23.452C43.4464 24.5019 43.5906 25.1988 43.872 25.5332C44.1557 25.8746 44.6799 26.0757 45.4494 26.1389C44.9083 27.8904 44.4443 28.959 44.0427 29.3519C43.6411 29.7377 42.9462 29.9318 41.9435 29.9318H36.1532C36.449 29.0432 36.6726 28.2201 36.8313 27.4554C36.9804 26.6837 37.0597 26.0196 37.0597 25.4513V14.7272C37.0597 13.5065 36.8626 12.6155 36.461 12.0449C36.069 11.4767 35.439 11.1914 34.5782 11.1914C33.5803 11.1914 32.8661 11.5515 32.4405 12.2671C32.0125 12.9827 31.7961 14.215 31.7961 15.9712V23.452C31.7961 24.5136 31.9427 25.2105 32.2217 25.5332C32.5054 25.8606 33.0296 26.071 33.7991 26.1576C33.2581 27.8974 32.794 28.959 32.3924 29.3519C31.9932 29.7377 31.2983 29.9318 30.2932 29.9318H24.5053C24.7866 29.1929 25.0031 28.4469 25.1473 27.7009C25.2988 26.955 25.371 26.202 25.371 25.4513V14.2665C25.371 13.303 25.2459 12.7091 24.9958 12.4822C24.7458 12.2461 24.2432 12.1221 23.4857 12.1034C24.01 10.2046 24.4716 9.07276 24.8732 8.68692C25.2724 8.30809 26.001 8.11166 27.0638 8.11166C27.398 8.11166 27.7732 8.11867 28.1795 8.13036C28.5931 8.14439 28.824 8.15141 28.8769 8.15141C29.3073 8.15141 29.7089 8.13036 30.0768 8.08827C30.4375 8.04384 30.7789 7.9807 31.0867 7.89184C30.9809 8.48581 30.8919 9.06107 30.8174 9.61762C30.7404 10.1742 30.6755 10.7237 30.6226 11.2686C31.1853 10.0806 32.0004 9.17565 33.0633 8.56064C34.1261 7.94095 35.4126 7.63227 36.9106 7.63227C38.2284 7.63227 39.3633 7.88482 40.3228 8.38525C41.2726 8.88335 42.0397 9.63633 42.6192 10.6349C43.2107 9.67375 44.0114 8.92778 45.0334 8.40864C46.0505 7.89184 47.1999 7.63227 48.4792 7.63227C50.6722 7.63227 52.3265 8.25898 53.4351 9.51006C54.5436 10.7681 55.0942 12.6389 55.0942 15.1364V23.452ZM72.6074 24.6607C73.1581 23.426 73.4346 21.2395 73.4346 18.6345C73.4346 16.0669 73.1581 14.1563 72.6002 12.9123C72.0424 11.6682 71.1815 11.0415 70.0345 11.0415C68.9452 11.0415 68.1108 11.5794 67.5385 12.6597C66.9687 13.7401 66.6873 15.3139 66.6873 17.3764V19.7803C66.6873 21.9995 66.9687 23.6739 67.5337 24.8057C68.0964 25.9375 68.9308 26.5011 70.0345 26.5011C71.1959 26.5011 72.0568 25.8884 72.6074 24.6607ZM78.2318 10.5598C79.6746 12.5077 80.396 15.5477 80.396 19.1279C80.396 22.6496 79.6481 25.4067 78.1597 27.4037C77.0271 28.9191 75.6517 29.5317 74.1247 29.7773C73.5404 29.8708 72.9369 29.941 72.3117 29.9573C69.8061 30.0275 67.9185 29.7773 66.4565 27.4809C66.3795 28.5426 65.9539 29.2628 65.5187 29.6253C65.0858 29.9854 64.7252 29.955 63.4483 29.948C62.3013 29.9433 60.784 29.9456 59.6346 29.9456C59.8775 29.2464 60.582 27.9603 60.582 25.2103V6.45579C60.582 5.41985 60.4377 4.73702 60.142 4.39561C59.8462 4.05419 59.2835 3.84373 58.4491 3.77591C58.9878 2.08287 59.4663 1.03056 59.8799 0.626006C60.3007 0.214437 61.0365 0.0133292 62.1041 0.0133292H67.8824C67.5722 0.752283 67.3438 1.50059 67.1971 2.25124C67.048 3.01124 66.9759 3.75721 66.9759 4.49616V9.44668C67.5385 8.84102 68.2503 8.39204 69.1063 8.08804C69.9672 7.78404 70.9579 7.63204 72.0881 7.63204C74.7475 7.63204 76.7939 8.60484 78.2318 10.5598ZM94.9758 7.95358C96.6398 7.95358 98.032 7.18188 98.032 7.18188C98.032 7.18188 98.0945 7.60281 98.0945 8.03776C98.0945 10.6451 96.9067 12.1371 95.3244 12.1371C93.4921 12.1371 91.7079 10.5306 90.4191 10.5306C89.7939 10.5306 89.2143 10.9959 89.2143 11.5852C89.2143 12.6609 90.4191 13.477 92.6385 15.2449C93.6388 16.0423 95.3557 17.5226 96.3368 18.5328C97.9262 20.1697 98.5851 21.4442 98.5851 23.785C98.5851 27.4563 95.6058 30.1082 90.7821 30.1082C87.3243 30.1082 84.3162 28.4362 82.253 26.4298C83.1451 24.0796 85.367 23.1419 87.0021 22.1901C87.0021 22.1901 86.8362 22.9431 86.8362 23.4015C86.8362 25.3213 88.1419 26.701 90.0536 26.701C91.9099 26.701 92.487 25.5154 92.487 24.7274C92.487 23.6984 91.9748 23.0507 90.8447 22.0522C89.4428 20.8175 87.2546 19.2063 85.8383 17.5483C84.6769 16.185 83.727 14.5925 83.727 12.6258C83.727 9.0737 86.6102 7.28711 89.6063 7.28711C91.6694 7.28711 93.5066 7.95358 94.9758 7.95358Z" fill="#535655"/>
</svg>
