<svg width="67" height="65" viewBox="0 0 67 65" fill="none" xmlns="http://www.w3.org/2000/svg">
<path d="M1.95219 59.9073C2.37839 59.9073 2.71185 60.0596 2.95476 60.3666C3.19768 60.6713 3.31914 61.0953 3.31914 61.6364C3.31914 62.173 3.19768 62.597 2.95697 62.9039C2.71626 63.2109 2.38723 63.3633 1.96765 63.3633C1.46636 63.3633 1.13069 63.1756 0.956235 62.8002H0.901027V64.3592H0.0177002V59.9625H0.874528V60.5123H0.929736C1.02028 60.3246 1.15498 60.1767 1.33607 60.0685C1.51494 59.9625 1.72031 59.9073 1.95219 59.9073ZM1.65186 62.6257C1.89035 62.6257 2.07585 62.5374 2.21056 62.3607C2.34306 62.1884 2.40931 61.9455 2.40931 61.6364C2.40931 61.3272 2.34306 61.0865 2.21056 60.912C2.07364 60.7376 1.88815 60.6493 1.65406 60.6493C1.41998 60.6493 1.23448 60.7376 1.09536 60.912C0.960652 61.0909 0.892194 61.3338 0.892194 61.6386C0.892194 61.9455 0.960652 62.1862 1.09536 62.3607C1.23228 62.5374 1.41777 62.6257 1.65186 62.6257Z" fill="#012E5F"/>
<path d="M5.20722 62.6632C5.4413 62.6632 5.62459 62.5727 5.75488 62.3916C5.88297 62.2127 5.94701 61.961 5.94701 61.6364C5.94701 61.314 5.88297 61.0622 5.75488 60.8833C5.62238 60.7022 5.4413 60.6139 5.20722 60.6139C4.97314 60.6139 4.78985 60.7022 4.66177 60.8833C4.53147 61.0622 4.46743 61.314 4.46743 61.6364C4.46743 61.961 4.53147 62.2149 4.66177 62.3938C4.78764 62.5727 4.97093 62.6632 5.20722 62.6632ZM5.20722 63.3854C4.69268 63.3854 4.28856 63.2308 3.99706 62.9194C3.70336 62.6102 3.55981 62.1818 3.55981 61.6364C3.55981 61.0931 3.70556 60.6669 4.00148 60.3578C4.29518 60.0464 4.6971 59.8896 5.20722 59.8896C5.71734 59.8896 6.12146 60.0442 6.41517 60.3533C6.71108 60.6647 6.85683 61.0931 6.85683 61.6364C6.85683 62.1818 6.71108 62.6102 6.41959 62.9194C6.12588 63.2308 5.72176 63.3854 5.20722 63.3854Z" fill="#012E5F"/>
<path d="M10.8738 63.3125H9.93308L9.33462 61.0026H9.27941L8.68759 63.3125H7.75788L6.86572 59.9625H7.76009L8.25917 62.3651H8.31438L8.89958 59.9625H9.74316L10.3328 62.3651H10.388L10.8871 59.9625H11.7638L10.8738 63.3125Z" fill="#012E5F"/>
<path d="M13.3869 60.5675C13.1837 60.5675 13.0136 60.6338 12.8811 60.7641C12.7486 60.8966 12.6758 61.0688 12.6581 61.2875H14.0869C14.0758 61.0644 14.0096 60.89 13.8859 60.7619C13.7601 60.6316 13.5944 60.5675 13.3869 60.5675ZM14.9283 62.3585C14.8598 62.6765 14.692 62.926 14.4203 63.1093C14.1465 63.2926 13.8064 63.3854 13.3957 63.3854C12.8878 63.3854 12.4881 63.233 12.2032 62.926C11.9183 62.6235 11.7748 62.1995 11.7748 61.654C11.7748 61.1108 11.9183 60.6802 12.2076 60.3644C12.4947 60.0486 12.8878 59.8896 13.3846 59.8896C13.8793 59.8896 14.2636 60.0375 14.5396 60.3357C14.8156 60.6338 14.9548 61.049 14.9548 61.5812V61.8506H12.6559V61.8969C12.6625 62.1465 12.7332 62.3408 12.8701 62.4866C13.007 62.6323 13.1903 62.7052 13.42 62.7052C13.7799 62.7052 14.0074 62.5904 14.1046 62.3585H14.9283Z" fill="#012E5F"/>
<path d="M15.3611 59.9625H16.2179V60.4969H16.2731C16.3173 60.3268 16.4167 60.1877 16.5735 60.0795C16.7324 59.9647 16.9157 59.9073 17.1211 59.9073C17.2713 59.9073 17.3839 59.9227 17.4612 59.9514V60.7553C17.3684 60.7177 17.2315 60.7 17.0504 60.7C16.8075 60.7 16.6154 60.7663 16.4697 60.901C16.3195 61.0401 16.2444 61.2234 16.2444 61.4575V63.3125H15.3611V59.9625Z" fill="#012E5F"/>
<path d="M19.1087 60.5675C18.9033 60.5675 18.7332 60.6338 18.6007 60.7641C18.4705 60.8966 18.3954 61.0688 18.3799 61.2875H19.8065C19.7954 61.0644 19.7292 60.89 19.6055 60.7619C19.4797 60.6316 19.314 60.5675 19.1087 60.5675ZM20.6479 62.3585C20.5816 62.6765 20.4116 62.926 20.1399 63.1093C19.8661 63.2926 19.526 63.3854 19.1175 63.3854C18.6074 63.3854 18.2077 63.233 17.9228 62.926C17.6379 62.6235 17.4966 62.1995 17.4966 61.654C17.4966 61.1108 17.6401 60.6802 17.9272 60.3644C18.2143 60.0486 18.6074 59.8896 19.1042 59.8896C19.5989 59.8896 19.9831 60.0375 20.2592 60.3357C20.5352 60.6338 20.6744 61.049 20.6744 61.5812V61.8506H18.3755V61.8969C18.3821 62.1465 18.4528 62.3408 18.5919 62.4866C18.7266 62.6323 18.9121 62.7052 19.1396 62.7052C19.4995 62.7052 19.727 62.5904 19.8241 62.3585H20.6479Z" fill="#012E5F"/>
<path d="M22.2798 63.3633C21.8602 63.3633 21.5267 63.2087 21.2816 62.8995C21.0387 62.5904 20.9172 62.1686 20.9172 61.6319C20.9172 61.0997 21.0387 60.6802 21.2838 60.3688C21.5267 60.0618 21.8602 59.9072 22.2798 59.9072C22.5072 59.9072 22.7082 59.9602 22.8848 60.0618C23.0615 60.1678 23.1918 60.3114 23.2801 60.4969H23.3309V58.6838H24.2143V63.3125H23.3574V62.7869H23.3044C23.2139 62.968 23.0814 63.1093 22.9003 63.2109C22.7192 63.3125 22.5139 63.3633 22.2798 63.3633ZM22.5801 60.6492C22.346 60.6492 22.1605 60.7376 22.0258 60.912C21.8911 61.0865 21.8249 61.3272 21.8249 61.6364C21.8249 61.9455 21.8911 62.1884 22.0258 62.3607C22.1583 62.5374 22.3438 62.6257 22.5801 62.6257C22.8186 62.6257 23.0041 62.5374 23.1388 62.3607C23.2735 62.1884 23.3398 61.9477 23.3398 61.6386C23.3398 61.3338 23.2735 61.0931 23.1366 60.9164C22.9997 60.7376 22.8164 60.6492 22.5801 60.6492Z" fill="#012E5F"/>
<path d="M46.5933 62.6986C46.7987 62.6986 46.9687 62.6412 47.1078 62.5263C47.2448 62.4115 47.3132 62.2679 47.3132 62.0979V61.8506L46.6375 61.8947C46.2598 61.9212 46.0721 62.0537 46.0721 62.2967C46.0721 62.4225 46.1207 62.5197 46.2179 62.5926C46.3128 62.6632 46.4387 62.6986 46.5933 62.6986ZM46.3018 63.3633C45.9794 63.3633 45.7166 63.2727 45.5134 63.0916C45.3103 62.9039 45.2065 62.6588 45.2065 62.3563C45.2065 62.0537 45.3169 61.8152 45.5444 61.643C45.7652 61.4707 46.0876 61.3714 46.5028 61.3471L47.3132 61.2985V61.0247C47.3132 60.7354 47.1255 60.5874 46.7479 60.5874C46.4211 60.5874 46.2201 60.6912 46.145 60.8988H45.3301C45.3589 60.5874 45.5068 60.3423 45.7718 60.1612C46.0346 59.9801 46.3769 59.8896 46.7965 59.8896C47.2381 59.8896 47.5804 59.989 47.8233 60.1877C48.0663 60.3865 48.1855 60.6647 48.1855 61.0247V63.3125H47.3287V62.8752H47.2735C47.0902 63.1999 46.7656 63.3633 46.3018 63.3633Z" fill="#012E5F"/>
<path d="M48.7685 58.6838H49.6518V63.3125H48.7685V58.6838Z" fill="#012E5F"/>
<path d="M53.3596 63.3125H52.5027V62.7737H52.4475C52.368 62.968 52.2422 63.1181 52.0633 63.2241C51.8844 63.3324 51.6746 63.3854 51.4317 63.3854C51.0607 63.3854 50.767 63.2749 50.5506 63.0541C50.332 62.8311 50.2238 62.5241 50.2238 62.131V59.9625H51.1049V61.9168C51.1049 62.3828 51.3235 62.6169 51.7585 62.6169C51.9772 62.6169 52.1516 62.5528 52.2819 62.4225C52.41 62.2922 52.4762 62.1178 52.4762 61.8947V59.9625H53.3596V63.3125Z" fill="#012E5F"/>
<path d="M53.9315 59.9625H54.7861V60.5101H54.8413C54.9098 60.318 55.0268 60.1656 55.1903 60.0552C55.3559 59.9448 55.548 59.8896 55.7666 59.8896C56.2436 59.8896 56.5506 60.0972 56.6941 60.5101H56.7493C56.8266 60.3202 56.9569 60.1723 57.1336 60.0596C57.3147 59.947 57.5245 59.8896 57.7563 59.8896C58.0898 59.8896 58.3548 59.9912 58.5491 60.1921C58.7434 60.3953 58.8406 60.6691 58.8406 61.0136V63.3125H57.9573V61.2477C57.9573 60.8502 57.7696 60.6515 57.3986 60.6515C57.2197 60.6515 57.0762 60.7089 56.9702 60.8259C56.862 60.9363 56.809 61.0821 56.809 61.261V63.3125H55.9588V61.2124C55.9588 61.0335 55.9102 60.8966 55.813 60.7972C55.7158 60.7 55.5811 60.6515 55.4067 60.6515C55.2344 60.6515 55.0931 60.7111 54.9805 60.8347C54.8701 60.9562 54.8148 61.1108 54.8148 61.2963V63.3125H53.9315V59.9625Z" fill="#012E5F"/>
<path d="M59.3817 59.9625H60.2363V60.4991H60.2915C60.3688 60.3114 60.5013 60.1634 60.6868 60.053C60.8723 59.9448 61.0887 59.8896 61.3338 59.8896C61.7048 59.8896 61.9941 60 62.1995 60.2186C62.4004 60.4373 62.502 60.7464 62.502 61.1461V63.3125H61.6187V61.3559C61.6187 60.8855 61.4067 60.6515 60.9805 60.6515C60.7619 60.6515 60.5874 60.7177 60.4593 60.8524C60.329 60.9849 60.265 61.1594 60.265 61.3802V63.3125H59.3817V59.9625Z" fill="#012E5F"/>
<path d="M63.0497 59.9625H63.933V63.3125H63.0497V59.9625ZM63.4914 59.4943C63.3346 59.4943 63.2087 59.4523 63.1115 59.3706C63.0166 59.2867 62.9702 59.1807 62.9702 59.0482C62.9702 58.9157 63.0166 58.8075 63.1115 58.7258C63.2087 58.6441 63.3346 58.6021 63.4914 58.6021C63.6504 58.6021 63.7763 58.6441 63.8712 58.7258C63.9662 58.8075 64.0147 58.9157 64.0147 59.0482C64.0147 59.1807 63.9662 59.2867 63.8712 59.3706C63.774 59.4523 63.6482 59.4943 63.4914 59.4943Z" fill="#012E5F"/>
<path d="M26.5065 63.3125V58.929H27.4229V60.8833H27.4781L29.0968 58.929H30.1171L28.5205 60.8524L30.2297 63.3125H29.13L27.858 61.4774L27.4229 61.9919V63.3125H26.5065Z" fill="#012E5F"/>
<path d="M30.6029 63.3125V58.929H31.685L32.8973 61.8749H32.9503L34.1649 58.929H35.2426V63.3125H34.3924V60.382H34.3438L33.2308 63.0607H32.6191L31.5017 60.382H31.4531V63.3125H30.6029Z" fill="#012E5F"/>
<path d="M35.9912 63.3125V58.929H37.9058C38.3298 58.929 38.6633 59.0283 38.9062 59.2227C39.1447 59.417 39.2639 59.6842 39.2639 60.0243C39.2639 60.2562 39.1889 60.4615 39.0365 60.6404C38.8841 60.8193 38.6964 60.9231 38.4712 60.9584V61.0136C38.7604 61.0357 39.0011 61.1439 39.1911 61.3382C39.3788 61.537 39.4737 61.7777 39.4737 62.0581C39.4737 62.4424 39.3368 62.7471 39.0674 62.9724C38.7958 63.1998 38.4248 63.3125 37.9588 63.3125H35.9912ZM36.9077 60.7464H37.5967C37.844 60.7464 38.0317 60.6978 38.1642 60.6007C38.2967 60.5035 38.3629 60.3666 38.3629 60.1899C38.3629 60.0132 38.3011 59.8763 38.1819 59.7814C38.0626 59.682 37.8926 59.6312 37.6739 59.6312H36.9077V60.7464ZM37.7247 62.6102C38.2658 62.6102 38.5396 62.4004 38.5396 61.9786C38.5396 61.5701 38.2592 61.3647 37.7027 61.3647H36.9077V62.6102H37.7247Z" fill="#012E5F"/>
<path d="M40.6751 62.0935C40.695 62.2724 40.7899 62.4137 40.9578 62.5197C41.1234 62.6257 41.3332 62.6787 41.5937 62.6787C41.8322 62.6787 42.0266 62.6257 42.179 62.5197C42.3313 62.4159 42.4064 62.2812 42.4064 62.1156C42.4064 61.9764 42.3468 61.8638 42.232 61.7755C42.1127 61.6894 41.9206 61.6165 41.6512 61.5591L41.0814 61.4376C40.2864 61.272 39.8889 60.8546 39.8889 60.1877C39.8889 59.7747 40.0435 59.4435 40.3483 59.1895C40.653 58.9422 41.0593 58.8185 41.565 58.8185C42.0487 58.8185 42.4439 58.94 42.7575 59.1851C43.0667 59.4302 43.2279 59.7482 43.2412 60.1391H42.3799C42.3578 59.9647 42.2739 59.8255 42.126 59.7195C41.978 59.6135 41.7925 59.5627 41.5717 59.5627C41.3398 59.5627 41.1565 59.6113 41.0196 59.7107C40.8783 59.8101 40.8098 59.9426 40.8098 60.1082C40.8098 60.2451 40.865 60.3533 40.9798 60.4372C41.0903 60.5189 41.2757 60.5874 41.5319 60.6426L42.0597 60.7552C42.5014 60.848 42.8194 60.9937 43.0203 61.1925C43.2213 61.3912 43.3207 61.6606 43.3207 62.0007C43.3207 62.4424 43.1617 62.7891 42.8437 63.0453C42.5279 63.297 42.095 63.4251 41.5452 63.4251C41.0218 63.4251 40.6022 63.3058 40.2886 63.0673C39.9706 62.8266 39.805 62.5042 39.7896 62.0935H40.6751Z" fill="#012E5F"/>
<path d="M66.4593 4.90246L55.1792 27.4648L59.8079 36.7221C60.4703 38.0471 61.0202 39.0298 61.5105 39.7166C61.8483 40.1892 62.1597 40.5226 62.4578 40.728H62.4799L62.9812 38.173L65.4788 41.1652V52.6176C61.5679 52.6176 58.7015 52.0346 55.9499 50.1222L55.9565 50.1134C53.4589 48.3754 51.6106 45.827 49.6098 41.8211L48.8281 40.2598C47.534 42.3864 46.0434 44.2834 44.014 46.134C41.7858 48.17 39.1601 49.8064 36.2583 50.9304C33.4494 52.0191 30.4284 52.6176 27.3058 52.6176C20.4556 52.6176 14.2525 49.8395 9.76295 45.35C5.27344 40.8605 2.49316 34.6573 2.49316 27.8049C2.49316 20.9547 5.27344 14.7516 9.76295 10.262C14.2525 5.77033 20.4556 2.99226 27.3058 2.99226C30.3533 2.99226 33.3014 3.5598 36.0441 4.59329C38.8553 5.65108 41.4302 7.21236 43.654 9.16672C45.8469 11.0924 47.3021 13.0092 48.5719 15.18L53.7107 4.90246L63.9617 1.91019L66.4593 4.90246ZM32.0206 15.2838C30.5808 14.7405 28.993 14.4446 27.3058 14.4446C23.6179 14.4446 20.2768 15.9396 17.8586 18.3577C15.4427 20.7758 13.9455 24.1148 13.9455 27.8049C13.9455 31.495 15.4405 34.8362 17.8586 37.2521C20.2768 39.6702 23.6157 41.1652 27.3058 41.1652C29.046 41.1652 30.6757 40.8539 32.142 40.2863C33.679 39.6901 35.0946 38.8001 36.3202 37.6805C38.7913 35.4258 40.2422 32.3695 42.2318 27.9507C41.7814 27.0386 41.3706 26.184 40.9819 25.3736C38.7537 20.7405 37.0931 17.1917 32.0206 15.2838Z" fill="#E6E6E6"/>
<path d="M63.9661 1.90799L52.6838 24.4682L57.3147 33.7276C58.4343 35.9669 59.2315 37.2278 59.9625 37.7357H59.9868C60.4682 38.0692 61.4244 38.1708 62.9834 38.1708V49.6231C59.0725 49.6231 56.2061 49.0401 53.4545 47.1299L53.4612 47.1189C50.9658 45.3809 49.1174 42.8325 47.1145 38.8266L46.3349 37.2654C45.0386 39.392 43.5502 41.2889 41.5208 43.1417C39.2926 45.1756 36.6669 46.8119 33.763 47.936C30.954 49.0247 27.933 49.6231 24.8127 49.6231C17.9625 49.6231 11.7593 46.8451 7.26757 42.3555C2.77806 37.866 0 31.6629 0 24.8105C0 17.9603 2.77806 11.7571 7.26757 7.26757C11.7593 2.77806 17.9625 0 24.8127 0C27.8601 0 30.806 0.565329 33.551 1.59882C36.3622 2.65661 38.9371 4.21789 41.1608 6.17225C43.3515 8.0979 44.809 10.0147 46.0788 12.1855L51.2153 1.90799H63.9661ZM29.5252 12.2893C28.0854 11.7483 26.4998 11.4501 24.8127 11.4501C21.1226 11.4501 17.7814 12.9452 15.3655 15.3633C12.9474 17.7814 11.4523 21.1204 11.4523 24.8105C11.4523 28.5006 12.9474 31.8417 15.3655 34.2598C17.7814 36.6757 21.1226 38.1708 24.8127 38.1708C26.5528 38.1708 28.1803 37.8594 29.6489 37.2897C31.1837 36.6956 32.5992 35.8057 33.827 34.6861C36.2981 32.4314 37.749 29.375 39.7365 24.9562C39.286 24.0442 38.8752 23.1895 38.4866 22.3791C36.2606 17.746 34.5999 14.1995 29.5252 12.2893Z" fill="#012E5F"/>
<path d="M55.0908 19.6584L52.6838 24.4682L56.449 31.9963L45.3765 11.046C45.6194 11.4192 45.8512 11.799 46.0787 12.1855L48.5211 7.30069L55.0908 19.6584ZM46.2907 37.336C45.0055 39.4339 43.5259 41.311 41.5207 43.1417C41.3441 43.3007 41.1674 43.4597 40.9863 43.6143L35.3794 33.0055C36.9893 30.9628 38.2038 28.3636 39.7364 24.9562L39.5907 24.6603L46.2907 37.336Z" fill="#001D3B"/>
</svg>
