<svg width="24" height="20" viewBox="0 0 24 20" fill="none" xmlns="http://www.w3.org/2000/svg">
<path fill-rule="evenodd" clip-rule="evenodd" d="M2.98019 3.98518C2.98019 3.43016 3.43013 2.98022 3.98514 2.98022H20.8267C21.3817 2.98022 21.8317 3.43016 21.8317 3.98518V16.0149C21.8317 16.5699 21.3817 17.0198 20.8267 17.0198H3.98514C3.43013 17.0198 2.98019 16.5699 2.98019 16.0149V3.98518ZM3.98514 0.980225C2.32556 0.980225 0.980194 2.32559 0.980194 3.98518V16.0149C0.980194 17.6745 2.32556 19.0198 3.98514 19.0198H20.8267C22.4863 19.0198 23.8317 17.6745 23.8317 16.0149V3.98518C23.8317 2.32559 22.4863 0.980225 20.8267 0.980225H3.98514ZM5.80203 4.39877C5.36609 4.0597 4.73781 4.13824 4.39874 4.57418C4.05967 5.01013 4.13821 5.63841 4.57415 5.97748L11.792 11.5913C12.1531 11.8722 12.6587 11.8722 13.0199 11.5913L20.2377 5.97748C20.6736 5.63841 20.7522 5.01013 20.4131 4.57418C20.074 4.13824 19.4457 4.0597 19.0098 4.39877L12.4059 9.53512L5.80203 4.39877Z" fill="#303030"/>
</svg>
