<?xml version="1.0" encoding="UTF-8"?><svg version="1.1" viewBox="0 0 512 512" xmlns="http://www.w3.org/2000/svg" xmlns:xlink="http://www.w3.org/1999/xlink"><!--Generated by IJSVG (https://github.com/iconjar/IJSVG)--><path d="M424,80h-336l6.94458e-08,-7.42943e-11c-30.9142,0.0330692 -55.9669,25.0858 -56,56v240l-1.99888e-06,-0.00189867c0.0320223,30.9142 25.0839,55.9678 55.9981,56.0019h336.002l1.7125e-06,-1.83184e-09c30.9142,-0.0330702 55.9669,-25.0858 56,-56v-240l2.00122e-06,0.00190093c-0.032021,-30.9142 -25.0839,-55.9678 -55.9981,-56.0019Zm-14.18,92.63l-144,112l1.76968e-07,-1.37573e-07c-5.77658,4.49066 -13.8634,4.49066 -19.64,2.75146e-07l-144,-112l-1.56426e-06,-1.18129e-06c-7.05169,-5.32526 -8.45123,-15.3588 -3.12597,-22.4105c5.32526,-7.05169 15.3588,-8.45123 22.4105,-3.12597c0.119797,0.0904674 0.238314,0.182616 0.355517,0.276419l134.18,104.36l134.18,-104.36l-1.56427e-06,1.1813e-06c7.05169,-5.32526 17.0852,-3.92572 22.4105,3.12597c5.21958,6.91174 3.99166,16.722 -2.77045,22.134Z" fill="#000"></path></svg>