<svg id="adfdae53-ac3f-422d-9a70-739df0a07d3c" data-name="Layer 1" xmlns="http://www.w3.org/2000/svg" viewBox="0 0 131 64"><title>mind_logo</title><path d="M34.22,21.23a13.31,13.31,0,0,0-9.07,4.09c-2.07-2.79-5.22-4.09-9-4.09A10.93,10.93,0,0,0,8.32,24.9V22.06H1.44v29.4H9.21v-21a7.16,7.16,0,0,1,5-2.43c3.38,0,5.28,1.66,5.28,5.69V51.46h7.76V33a17.38,17.38,0,0,0-.17-2.43A7.39,7.39,0,0,1,32.32,28c3.38,0,5.28,1.66,5.28,5.69V51.46h7.76V33C45.36,24.79,40.5,21.23,34.22,21.23Z" fill="#231f20"/><path d="M82.43,21.23a11.67,11.67,0,0,0-8.36,3.56V22.06H67.2v29.4H75v-21A7.3,7.3,0,0,1,80.42,28c3.55,0,5.8,1.66,5.8,5.69V51.46H94V33C94,24.73,89.13,21.23,82.43,21.23Z" fill="#231f20"/><rect x="52.46" y="11.69" width="7.76" height="29.24" fill="#231f20"/><ellipse cx="56.37" cy="48.04" rx="4.39" ry="4.27" fill="#231f20"/><path d="M121.79,11.75V23.66a14,14,0,0,0-7.88-2.43c-8.3,0-15,6.76-15,15.53,0,9.25,6.57,15.53,14.93,15.53,4,0,7.23-1.54,8.83-3.5v2.67h6.88V11.75Zm0,31.23a8.9,8.9,0,0,1-6.63,2.55c-4.92,0-8.42-3.5-8.42-8.77S110.47,28,115.21,28c2.79,0,5.46,1.12,6.58,2.37Z" fill="#231f20"/></svg>