<svg xmlns="http://www.w3.org/2000/svg" xmlns:xlink="http://www.w3.org/1999/xlink" viewBox="0 0 90 36" version="1.1"><g id="mobile_main" stroke="none" stroke-width="1" fill="none" fill-rule="evenodd"><g id="mobile_main_v.0.1-copy" transform="translate(-20.000000, -5.000000)"><g id="header"><g id="logo"><g transform="translate(20.000000, 5.000000)"><polygon id="Fill-1" fill="#191919" points="75.8108108 31.6613887 79.5687055 31.6613887 79.5687055 21.5714286 75.8108108 21.5714286"/><path d="M66.2989455,28.3440445 C67.0278365,28.9254122 68.6000169,29.5258359 69.6353553,29.5258359 C70.3444342,29.5258359 70.555656,29.3517486 70.555656,29.1192015 C70.555656,28.227771 65.3022726,29.3711275 65.3022726,25.4956655 C65.3022726,23.8093761 66.7594154,22.298143 69.4433064,22.298143 C70.9966335,22.298143 72.376765,22.7826161 73.4504492,23.4996363 L72.1850357,25.7669705 C71.6098477,25.2824974 70.5361635,24.7980243 69.4627989,24.7980243 C68.9639831,24.7980243 68.6000169,24.9914905 68.6000169,25.2049817 C68.6000169,25.9801387 73.8530808,25.0111924 73.8530808,28.9057103 C73.8530808,30.7660871 72.2042086,32.1226118 69.4627989,32.1226118 C67.7564079,32.1226118 65.9158064,31.5218652 64.9188139,30.6888944 L66.2989455,28.3440445 Z" id="Fill-11" fill="#191919"/><path d="M20.2848026,28.8286468 C20.0547274,28.4988821 19.4603665,28.3247948 18.9235244,28.3247948 C18.3483365,28.3247948 17.7156297,28.518584 17.7156297,29.0999518 C17.7156297,29.6813195 18.3483365,29.8557298 18.9235244,29.8557298 C19.4603665,29.8557298 20.0547274,29.6813195 20.2848026,29.3518778 L20.2848026,28.8286468 Z M20.2848026,31.8901939 L20.2848026,30.9990864 C19.7671335,31.6579698 18.6359305,32.122741 17.4855545,32.122741 C16.1051034,32.122741 14.3031673,31.1734967 14.3031673,29.041492 C14.3031673,26.716344 16.1051034,26.0577836 17.4855545,26.0577836 C18.6934492,26.0577836 19.7863064,26.4450391 20.2848026,27.0845436 L20.2848026,26.1155974 C20.2848026,25.4567139 19.6904417,24.9531848 18.5592387,24.9531848 C17.6964568,24.9531848 16.7186372,25.3016825 15.9903853,25.8636713 L14.8208365,23.7129337 C16.0667575,22.7049066 17.7923214,22.2979492 19.1919455,22.2979492 C21.4926974,22.2979492 23.7356109,23.112187 23.7356109,26.2318709 L23.7356109,31.8901939 L20.2848026,31.8901939 Z" id="Fill-3" fill="#191919"/><path d="M48.3534643,31.8903231 L48.3534643,26.6777154 C48.3534643,25.7087691 47.8361147,25.3793274 47.0116786,25.3793274 C46.2255883,25.3793274 45.8229568,25.7862848 45.5353628,26.1157265 L45.5353628,31.8903231 L42.084235,31.8903231 L42.084235,18.9649033 L45.5353628,18.9649033 L45.5353628,23.5964663 C46.0718853,22.9763407 47.0880508,22.2980784 48.7180695,22.2980784 C50.8651184,22.2980784 51.8045921,23.5774104 51.8045921,25.2049171 L51.8045921,31.8903231 L48.3534643,31.8903231 Z" id="Fill-7" fill="#191919"/><path d="M36.3704455,22.2978846 C38.479468,22.2978846 39.7832274,23.2668308 40.3008966,24.0613667 L38.0768365,26.1736695 C37.7892425,25.7279543 37.2524004,25.3791336 36.5238289,25.3791336 C35.5460094,25.3791336 34.7027199,25.9992592 34.7027199,27.2007525 C34.7027199,28.4022459 35.5460094,29.0414274 36.5238289,29.0414274 C37.2524004,29.0414274 37.7892425,28.6541719 38.0768365,28.2278355 L40.3008966,30.3591943 C39.7832274,31.1346743 38.479468,32.1226764 36.3704455,32.1226764 C33.4373064,32.1226764 31.1749004,30.1851069 31.1749004,27.2007525 C31.1749004,24.2357771 33.4373064,22.2978846 36.3704455,22.2978846 Z" id="Fill-5" fill="#191919"/><path d="M59.7036805,31.8901939 L59.7036805,30.9990864 C59.1860113,31.6579698 58.0548083,32.122741 56.9044323,32.122741 C55.5243008,32.122741 53.7217256,31.1734967 53.7217256,29.041492 C53.7217256,26.716344 55.5243008,26.0577836 56.9044323,26.0577836 C58.1126466,26.0577836 59.2051842,26.4450391 59.7036805,27.0845436 L59.7036805,26.1155974 C59.7036805,25.4567139 59.1093195,24.9531848 57.9784361,24.9531848 C57.1153346,24.9531848 56.1378346,25.3016825 55.4092632,25.8636713 L54.2393947,23.7129337 C55.4859549,22.7049066 57.2111992,22.2979492 58.6108233,22.2979492 C60.9115752,22.2979492 63.1548083,23.112187 63.1548083,26.2318709 L63.1548083,31.8901939 L59.7036805,31.8901939 Z M59.7036805,28.8286468 C59.4736053,28.4988821 58.8792444,28.3247948 58.3424023,28.3247948 C57.7672143,28.3247948 57.1345075,28.518584 57.1345075,29.0999518 C57.1345075,29.6813195 57.7672143,29.8557298 58.3424023,29.8557298 C58.8792444,29.8557298 59.4736053,29.6813195 59.7036805,29.3518778 L59.7036805,28.8286468 Z" id="Fill-9" fill="#191919"/><polygon id="Fill-2" fill="#191919" points="8.43570677 18.9649679 8.43570677 25.0887081 3.98790602 18.9649679 -6.39097743e-05 18.9649679 -6.39097743e-05 31.8900647 3.87286842 31.8900647 3.87286842 25.3406342 8.58909023 31.8900647 12.3083195 31.8900647 12.3083195 18.9649679"/><polyline id="Fill-13" fill="#2732FB" points="77.1884746 19.6454164 84.2473092 12.5107423 81.5899407 9.82482336 77.1887941 14.2735785 64.7072152 1.65757553 62.0498468 4.3434945"/></g></g></g></g></g></svg>