<svg id="bd6175a7-67d3-4396-bc4f-b002c3d676cf" data-name="Layer 1" xmlns="http://www.w3.org/2000/svg" viewBox="0 0 91.4 60.6"><title>pen-ukraine</title><path d="M51.57,54.48h1.74V59c0,1,.36,1.66,1.46,1.66S56.22,60,56.22,59V54.48H58v4.73a3.2,3.2,0,0,1-6.4,0Z" transform="translate(-19.8 -1.7)" fill="#0047bb"/><path d="M60.32,54.48H62v3l2.55-3h2l-2.62,3,3,4.65H64.85l-2-3.33-.78.87V62.1H60.32Z" transform="translate(-19.8 -1.7)" fill="#0047bb"/><path d="M68.57,54.48h2.84a2.45,2.45,0,0,1,1.42,4.57l1.69,3.05H72.63l-1.42-2.8h-1v2.8H68.57Zm2.74,3.44a1,1,0,0,0,1-1,.94.94,0,0,0-1-1H70.25v2Z" transform="translate(-19.8 -1.7)" fill="#0047bb"/><path d="M78.74,54.48h1.91l2.78,7.62H81.55L81,60.35H78.28L77.7,62.1H75.9ZM80.56,59l-.93-2.87L78.68,59Z" transform="translate(-19.8 -1.7)" fill="#0047bb"/><path d="M85.05,54.48h1.73V62.1H85.05Z" transform="translate(-19.8 -1.7)" fill="#0047bb"/><path d="M89.16,54.48h1.65l3.3,4.94V54.48h1.7V62.1H94.24l-3.38-5v5h-1.7Z" transform="translate(-19.8 -1.7)" fill="#0047bb"/><path d="M98.21,54.48h5.2V56H99.93v1.48h2.71v1.46H99.93v1.65h3.74V62.1H98.21Z" transform="translate(-19.8 -1.7)" fill="#0047bb"/><path d="M73.57,10.83h0c.84-.35,1.68-.73,2.51-1.14l-2-4.79C61.28,11.33,53.61,6.67,53.61,6.67L66.9,38.77S74.58,43.43,87.4,37l-2-4.8c-.84.43-1.67.82-2.5,1.17-5.94,2.45-10,2-12,1.42L67.65,27c3.47.21,8.3-.39,14.23-3.37l-2-4.8c-.84.44-1.67.83-2.5,1.17-5.94,2.46-10,2-12,1.43l-3.32-8A33.06,33.06,0,0,0,73.57,10.83Z" transform="translate(-19.8 -1.7)" fill="#0047bb"/><path d="M55.44,40.12a57.23,57.23,0,0,1,5.86-1.35L46.06,2C23.73,5.93,19.8,19.08,19.8,19.08l17.82,43H44L38.91,49.72C41.88,46.43,47,42.57,55.44,40.12ZM37.61,10.51a41.67,41.67,0,0,1,4.88-1.65L53.16,34.61c-1.69.51-3.3,1.08-4.85,1.72a39.91,39.91,0,0,0-11.86,7.45L26.29,19.25C27.61,17.11,30.78,13.35,37.61,10.51Z" transform="translate(-19.8 -1.7)" fill="#0047bb"/><path d="M101.83,3.63a53.58,53.58,0,0,0-5.28-1.31l6.55,15.84A166.51,166.51,0,0,0,83.17,1.7,28,28,0,0,0,78.05,3l13.3,32.1c1.44-.7,4.7-2.25,4.7-2.25L86.83,10.56a184.08,184.08,0,0,1,20.08,18c1.37-.36,2.73-.64,4.29-.92h0Z" transform="translate(-19.8 -1.7)" fill="#0047bb"/></svg>