<svg xmlns="http://www.w3.org/2000/svg" viewBox="0 0 131.17 64"><title>radio-svoboda</title><g id="f5e51378-4c41-4247-8ddd-dc56773bc883" data-name="compact"><g id="b7346b9a-096a-44bc-87ca-d0ee609074bd" data-name="color"><path d="M49.81,35.12H46.34v-14h5.08a5.53,5.53,0,0,1,3.78,1.16,4.27,4.27,0,0,1,1.41,3.44A4.55,4.55,0,0,1,55.37,29a4.93,4.93,0,0,1-3.67,1.25H49.81Zm0-7.68h1.06A2.48,2.48,0,0,0,52.56,27a1.8,1.8,0,0,0,.5-1.3,1.69,1.69,0,0,0-.5-1.27,2.51,2.51,0,0,0-1.75-.49h-1Zm12.14,8A4.63,4.63,0,0,1,58.34,34a5,5,0,0,1-1.4-3.54,5.32,5.32,0,0,1,1.49-3.81,4.72,4.72,0,0,1,3.36-1.3,3.72,3.72,0,0,1,2.86,1.17v-.85h3.26v9.46H64.65v-.91A3.26,3.26,0,0,1,62,35.43Zm.6-7.31a2.35,2.35,0,0,0-1.61.64,2.22,2.22,0,0,0-.66,1.61,2.29,2.29,0,0,0,.6,1.59,2.48,2.48,0,0,0,1.73.69A2.18,2.18,0,0,0,64.13,32a2.24,2.24,0,0,0,.71-1.67,2.21,2.21,0,0,0-.67-1.63A2.42,2.42,0,0,0,62.55,28.12Zm18.66,9.62H78.3V35.12H72v2.62H69.12v-5.1h.09a2.16,2.16,0,0,0,1.24-.55,3.41,3.41,0,0,0,.79-2.73V25.66h8.57v7h1.4Zm-7.87-5.11h3.22V28.14H74.24v1.67A5.32,5.32,0,0,1,74,31.54,2.75,2.75,0,0,1,73.34,32.63Zm12.34,2.49H82.43V25.66h3.25ZM84.06,23.66a1.85,1.85,0,1,1,1.88-1.85A1.85,1.85,0,0,1,84.06,23.66Zm8.45,11.77a6,6,0,0,1-4.2-1.52,5,5,0,0,1,0-7,6.54,6.54,0,0,1,8.41,0,5,5,0,0,1,0,7A6,6,0,0,1,92.51,35.43Zm0-7.35a2.26,2.26,0,0,0-1.64.64,2.42,2.42,0,0,0,0,3.34,2.29,2.29,0,0,0,1.66.63,2.25,2.25,0,0,0,1.63-.63,2.42,2.42,0,0,0,0-3.34A2.29,2.29,0,0,0,92.51,28.08ZM52.72,57.64a7.79,7.79,0,0,1-5.63-2,7.42,7.42,0,0,1,0-10.61,7.74,7.74,0,0,1,5.35-2,8.82,8.82,0,0,1,3.43.77l.06,0v4l-.17-.19a4.42,4.42,0,0,0-3.24-1.44,4,4,0,0,0-2.81,1.05,4.32,4.32,0,0,0-1.3,3.13,4,4,0,0,0,1.2,3,4.18,4.18,0,0,0,3,1.14,4.48,4.48,0,0,0,3.17-1.4l.17-.17v4l0,0A6.73,6.73,0,0,1,52.72,57.64Zm10.55-.31H57.4V47.87h5.17a3.81,3.81,0,0,1,2.42.62,2.36,2.36,0,0,1,.8,1.89A2,2,0,0,1,65.18,52a2,2,0,0,1-.53.4,3,3,0,0,1,1.12.61,2.18,2.18,0,0,1,.65,1.65,2.51,2.51,0,0,1-.73,1.86A3.28,3.28,0,0,1,63.27,57.33Zm-2.61-2.2h1.27a1.23,1.23,0,0,0,.85-.22.86.86,0,0,0,.26-.65.7.7,0,0,0-.26-.56,1.53,1.53,0,0,0-1-.23H60.66Zm0-3.57h1.15a1.33,1.33,0,0,0,.7-.17.66.66,0,0,0,.27-.6.71.71,0,0,0-.23-.56,1.6,1.6,0,0,0-.79-.16h-1.1ZM73,57.64a6,6,0,0,1-4.2-1.52,5,5,0,0,1,0-7,6.58,6.58,0,0,1,8.41,0,5,5,0,0,1,0,7A6,6,0,0,1,73,57.64Zm0-7.35a2.26,2.26,0,0,0-1.64.64,2.42,2.42,0,0,0,0,3.34,2.29,2.29,0,0,0,1.66.64,2.26,2.26,0,0,0,1.63-.64,2.42,2.42,0,0,0,0-3.34A2.29,2.29,0,0,0,73,50.29Zm12.42,7.35a5.44,5.44,0,0,1-4-1.39,6.67,6.67,0,0,1-1.7-4.85c0-1.62.24-4.6,1.89-6.32a6.28,6.28,0,0,1,3.44-1.67l.76-.17a3.47,3.47,0,0,0,1.75-.65.78.78,0,0,0,.21-.52V42h2.88v.11a4.17,4.17,0,0,1-1.15,2.5,5.42,5.42,0,0,1-2.33,1.14l-1.28.35a5.93,5.93,0,0,0-2.31,1,2.9,2.9,0,0,0-.91,1.71,4.29,4.29,0,0,1,3.22-1.2,5.37,5.37,0,0,1,3.74,1.33,4.85,4.85,0,0,1,1.43,3.48,5.2,5.2,0,0,1-1.56,3.79A5.55,5.55,0,0,1,85.39,57.64Zm0-7.33a2.26,2.26,0,0,0-1.62.64,2.34,2.34,0,0,0-.69,1.67,2.28,2.28,0,0,0,.66,1.61,2.37,2.37,0,0,0,1.69.64,2.24,2.24,0,0,0,1.52-.58,2.36,2.36,0,0,0,.78-1.75A2.23,2.23,0,0,0,87,51,2.26,2.26,0,0,0,85.37,50.31Zm12.42,7.33a6,6,0,0,1-4.21-1.52,5,5,0,0,1,0-7,6.58,6.58,0,0,1,8.41,0,5,5,0,0,1,0,7A6,6,0,0,1,97.79,57.64Zm0-7.35a2.29,2.29,0,0,0-1.65.64,2.42,2.42,0,0,0,0,3.34,2.3,2.3,0,0,0,1.67.64,2.34,2.34,0,0,0,1.62-4A2.26,2.26,0,0,0,97.79,50.29Zm18,9.66h-2.92V57.33H106.6V60h-2.92v-5.1h.09a2.07,2.07,0,0,0,1.24-.55,3.41,3.41,0,0,0,.79-2.73V47.87h8.58v7h1.4Zm-7.88-5.11h3.22V50.36H108.8V52a5.68,5.68,0,0,1-.21,1.73A2.73,2.73,0,0,1,107.9,54.84Zm13.22,2.8a4.61,4.61,0,0,1-3.61-1.44,4.91,4.91,0,0,1-1.41-3.54,5.32,5.32,0,0,1,1.49-3.81A4.79,4.79,0,0,1,121,47.56a3.75,3.75,0,0,1,2.86,1.16v-.85h3.26v9.46h-3.26v-.91A3.25,3.25,0,0,1,121.12,57.64Zm.59-7.3a2.31,2.31,0,0,0-1.6.63,2.19,2.19,0,0,0-.67,1.61,2.22,2.22,0,0,0,.61,1.59,2.47,2.47,0,0,0,1.73.7A2.27,2.27,0,0,0,124,52.58a2.24,2.24,0,0,0-.66-1.63A2.5,2.5,0,0,0,121.71,50.34Z" fill="#5c666f"/><path id="ab3c09c7-4eb1-4a0c-9046-3be03b2924b0" data-name="M" d="M43.1,20.1c-5.15.6-6.6,5.95-10.47,10.56-5.18,6.17-12.86,3-12.86,3C25,33,26.44,27.63,30.4,23,35.67,16.93,43.1,20.1,43.1,20.1Zm-18.67,9S30.87,24,28.1,16.48C26,10.78,22,6.75,24.1,2c0,0-6.38,5.19-3.72,12.67C22.41,20.39,26.57,24.4,24.43,29.15Zm-.37-1.09s.62-8.31-6.52-11.46C12,14.14,6.13,14.37,4.12,9.56c0,0-.79,8.25,6.78,11.45C16.5,23.37,22.06,23.25,24.06,28.06ZM15.58,42H30.05l3.38-6.82H15.58Zm2.3,20H19.1l8.31-19.09H17.88Z" fill="#ea6903"/></g></g></svg>