<?xml version="1.0" encoding="utf-8"?>
<!-- Generator: Adobe Illustrator 15.1.0, SVG Export Plug-In . SVG Version: 6.00 Build 0)  -->
<!DOCTYPE svg PUBLIC "-//W3C//DTD SVG 1.1//EN" "http://www.w3.org/Graphics/SVG/1.1/DTD/svg11.dtd">
<svg version="1.1" id="Шар_1" xmlns="http://www.w3.org/2000/svg" xmlns:xlink="http://www.w3.org/1999/xlink" x="0px" y="0px"
	 width="1224.933px" height="373.984px" viewBox="0 0 1224.933 373.984" enable-background="new 0 0 1224.933 373.984"
	 xml:space="preserve">
<g>
	<path fill="#343434" d="M207.087,209.014c8.132-3.535,14.495-8.701,18.911-15.354c4.415-6.649,6.652-14.684,6.652-23.879
		c0-9.192-2.209-17.259-6.566-23.975c-4.357-6.711-10.661-11.967-18.734-15.623c-8.1-3.663-17.783-5.521-28.783-5.521h-53.903
		v124.661h28.198v-34.966h27.362l0.127,0.185l24.079,34.781h30.161l-27.981-40.103L207.087,209.014z M197.131,186.241
		c-4.6,3.874-11.388,5.838-20.176,5.838h-24.092v-44.6h24.092c8.786,0,15.573,1.933,20.173,5.746
		c4.624,3.834,6.968,9.403,6.968,16.555C204.096,176.81,201.752,182.348,197.131,186.241z"/>
	<path fill="#343434" d="M323.029,158.32c-7.558-4.012-16.117-6.047-25.44-6.047c-9.565,0-18.335,2.125-26.063,6.316
		c-7.725,4.187-13.884,10.105-18.307,17.592c-4.422,7.489-6.664,16.014-6.664,25.334c0,9.44,2.272,17.993,6.753,25.422
		c4.479,7.426,10.937,13.313,19.192,17.5c8.265,4.191,17.912,6.318,28.675,6.318c17.081,0,30.278-5.104,39.232-15.167
		l-14.329-15.538c-3.286,3.102-6.876,5.411-10.676,6.873c-3.912,1.508-8.457,2.27-13.51,2.27c-7.353,0-13.588-1.774-18.533-5.276
		c-4.97-3.513-8.164-8.365-9.494-14.422l-0.113-0.517h73.11c0.336-4.379,0.506-6.771,0.506-7.104c0-9.916-2.183-18.743-6.487-26.236
		C336.575,168.156,330.569,162.329,323.029,158.32z M273.426,193.514l0.075-0.49c0.968-6.292,3.672-11.324,8.039-14.963
		c4.358-3.634,9.819-5.477,16.229-5.477c6.289,0,11.689,1.873,16.052,5.568c4.362,3.697,7.065,8.701,8.035,14.873l0.077,0.49
		H273.426L273.426,193.514L273.426,193.514z"/>
	<path fill="#343434" d="M447.105,158.406c-7.256-4.069-15.421-6.133-24.269-6.133c-13.073,0-23.158,4.172-29.973,12.398
		l-0.753,0.908v-11.872h-25.864v130.398h27.119v-45.682l0.74,0.815c6.933,7.641,16.599,11.516,28.73,11.516
		c8.849,0,17.014-2.063,24.269-6.132c7.245-4.064,13.014-9.861,17.141-17.229c4.128-7.371,6.221-16.078,6.221-25.879
		s-2.093-18.509-6.221-25.884C460.116,168.266,454.349,162.47,447.105,158.406z M435.969,221.262
		c-4.664,4.906-10.71,7.396-17.971,7.396c-7.262,0-13.308-2.487-17.969-7.396c-4.658-4.898-7.021-11.541-7.021-19.746
		s2.362-14.85,7.021-19.748c4.66-4.905,10.706-7.393,17.969-7.393c7.261,0,13.307,2.487,17.971,7.393
		c4.658,4.901,7.021,11.546,7.021,19.748C442.988,209.717,440.627,216.361,435.969,221.262z"/>
	<path fill="#343434" d="M569.389,158.591c-7.909-4.192-17.013-6.318-27.054-6.318c-10.043,0-19.177,2.126-27.146,6.318
		c-7.964,4.188-14.271,10.077-18.75,17.505c-4.479,7.424-6.753,15.977-6.753,25.419c0,9.441,2.272,17.996,6.753,25.42
		c4.479,7.43,10.788,13.316,18.75,17.504c7.968,4.19,17.101,6.316,27.146,6.316c10.044,0,19.146-2.126,27.054-6.316
		c7.9-4.186,14.181-10.073,18.661-17.504c4.481-7.429,6.754-15.979,6.754-25.42c0-9.439-2.271-17.994-6.754-25.419
		C583.569,168.667,577.29,162.778,569.389,158.591z M560.305,221.262c-4.665,4.906-10.711,7.396-17.97,7.396
		c-7.26,0-13.335-2.486-18.058-7.394c-4.722-4.9-7.112-11.545-7.112-19.748s2.393-14.85,7.112-19.75
		c4.722-4.904,10.797-7.391,18.058-7.391c7.26,0,13.305,2.487,17.97,7.393c4.657,4.902,7.021,11.546,7.021,19.748
		C567.323,209.716,564.962,216.359,560.305,221.262z"/>
	<path fill="#343434" d="M641.398,166.261l-0.771,1.074v-13.628h-25.865v95.616h27.119v-45.118c0-9.042,2.336-15.932,6.939-20.476
		c4.781-4.719,8.266-5.955,14.266-6.941c1.656-0.271,4.127-0.306,6.096-0.306c0.922,0,1.848,0.009,2.73,0.017
		c0.643,0.007,1.264,0.013,1.844,0.015l0.043-23.142c-7.773,0.007-13.725,0.216-19.043,2.454
		C649.169,158.179,644.677,161.69,641.398,166.261z"/>
	<path fill="#343434" d="M907.654,166.261l-0.771,1.074v-13.628h-25.867v95.616h27.121v-45.118c0-9.042,2.336-15.932,6.939-20.476
		c4.783-4.719,8.266-5.955,14.266-6.941c1.656-0.271,4.127-0.306,6.1-0.306c0.92,0,1.844,0.009,2.727,0.017
		c0.643,0.007,1.264,0.013,1.842,0.015l0.045-23.142c-7.773,0.007-13.725,0.216-19.043,2.454
		C915.425,158.179,910.931,161.69,907.654,166.261z"/>
	<path fill="#343434" d="M732.505,229.373c-3.932,0-7.021-1.16-9.186-3.449c-2.158-2.279-3.252-5.546-3.252-9.706v-39.69h24.023
		v-23.083h-24.023v-21.072h-27.123v84.205c0,11.18,3.121,19.763,9.275,25.511c6.166,5.753,15.027,8.67,26.338,8.67
		c4.355,0,8.57-0.509,12.535-1.511c3.809-0.966,7.076-2.416,9.725-4.313l-7.217-18.896
		C740.521,228.252,736.791,229.373,732.505,229.373z"/>
	<path fill="#343434" d="M838.587,158.32c-7.559-4.012-16.117-6.047-25.439-6.047c-9.566,0-18.334,2.125-26.064,6.316
		c-7.725,4.187-13.885,10.105-18.307,17.592c-4.422,7.488-6.664,16.012-6.664,25.334c0,9.44,2.271,17.994,6.754,25.422
		c4.479,7.426,10.936,13.313,19.189,17.5c8.266,4.191,17.914,6.318,28.678,6.318c17.08,0,30.277-5.104,39.23-15.167l-14.328-15.538
		c-3.289,3.102-6.879,5.412-10.678,6.873c-3.91,1.508-8.455,2.27-13.51,2.27c-7.355,0-13.588-1.774-18.533-5.276
		c-4.969-3.513-8.164-8.365-9.492-14.422l-0.113-0.517h73.109c0.418-5.436,0.506-6.869,0.506-7.104
		c0-9.915-2.184-18.743-6.488-26.236C852.134,168.156,846.128,162.329,838.587,158.32z M788.984,193.514l0.074-0.49
		c0.967-6.289,3.672-11.322,8.037-14.962c4.361-3.635,9.822-5.478,16.23-5.478c6.289,0,11.688,1.873,16.053,5.568
		c4.361,3.696,7.064,8.7,8.035,14.873l0.076,0.49H788.984L788.984,193.514L788.984,193.514z"/>
	<path fill="#343434" d="M1033.238,204.318c-3.637-3.869-7.977-6.574-12.9-8.043c-4.977-1.479-11.475-2.896-19.313-4.202
		c-7.045-1.074-12.264-2.228-15.494-3.427c-3.398-1.256-5.121-3.502-5.121-6.673c0-2.781,1.582-5.078,4.703-6.827
		c3.033-1.701,7.627-2.563,13.65-2.563c9.908,0,19.191,2.355,27.602,7.003l8.965-19.14c-4.314-2.502-9.799-4.5-16.307-5.94
		c-6.693-1.48-13.512-2.231-20.26-2.231c-9.104,0-17.104,1.317-23.781,3.915c-6.648,2.592-11.773,6.255-15.232,10.887
		c-3.453,4.628-5.205,10.001-5.205,15.971c0,7.144,1.861,12.714,5.531,16.562c3.699,3.875,8.131,6.611,13.172,8.137
		c5.105,1.544,11.664,2.927,19.484,4.107c6.686,0.838,11.725,1.873,14.967,3.071c3.395,1.259,5.119,3.384,5.119,6.315
		c0,6.111-6.115,9.21-18.18,9.21c-5.873,0-11.941-0.88-18.043-2.615c-5.918-1.681-11.063-3.87-15.303-6.515l-8.965,19.308
		c4.441,2.858,10.447,5.276,17.855,7.187c7.574,1.953,15.439,2.944,23.377,2.944c9.348,0,17.533-1.288,24.328-3.829
		c6.768-2.529,11.98-6.132,15.498-10.707c3.514-4.568,5.295-9.85,5.295-15.699C1038.681,213.615,1036.849,208.163,1033.238,204.318z
		"/>
	<path fill="#F06C5F" d="M1100.271,230.229c0,11.338-9.191,20.529-20.529,20.529s-20.529-9.191-20.529-20.529
		s9.191-20.529,20.529-20.529S1100.271,218.892,1100.271,230.229"/>
</g>
</svg>
