<svg width="58" height="14" viewBox="0 0 58 14" fill="none" xmlns="http://www.w3.org/2000/svg">
<path d="M22.9981 0.23999C22.7581 0.63999 22.5048 1.09332 22.2381 1.59999C21.9981 2.10666 21.7581 2.62666 21.5181 3.15999C21.3048 3.69332 21.1048 4.22666 20.9181 4.75999C20.7581 5.26666 20.6248 5.71999 20.5181 6.11999H25.4381V13.68H14.4381V7.55999C14.4381 6.86666 14.5048 6.17332 14.6381 5.47999C14.7981 4.75999 14.9848 4.07999 15.1981 3.43999C15.4115 2.79999 15.6515 2.19999 15.9181 1.63999C16.1848 1.07999 16.4248 0.613324 16.6381 0.23999H22.9981ZM8.83814 0.23999C8.59814 0.63999 8.3448 1.09332 8.07814 1.59999C7.83814 2.10666 7.59814 2.62666 7.35814 3.15999C7.14481 3.69332 6.94481 4.22666 6.75814 4.75999C6.57147 5.26666 6.4248 5.71999 6.31814 6.11999H11.2781V13.68H0.278137V7.55999C0.278137 6.86666 0.344805 6.17332 0.478138 5.47999C0.638138 4.75999 0.824804 4.07999 1.03814 3.43999C1.25147 2.79999 1.49147 2.19999 1.75814 1.63999C2.0248 1.07999 2.2648 0.613324 2.47814 0.23999H8.83814Z" fill="#D3D2F6"/>
<path d="M49.12 13.68C49.36 13.28 49.6133 12.8267 49.88 12.32C50.1467 11.8133 50.3867 11.2933 50.6 10.76C50.84 10.2267 51.04 9.70666 51.2 9.19999C51.3867 8.69332 51.5333 8.23999 51.64 7.83999H46.68V0.23999H57.68V6.39999C57.68 7.09332 57.6 7.78666 57.44 8.47999C57.3067 9.17332 57.1334 9.83999 56.92 10.48C56.7067 11.12 56.4667 11.72 56.2 12.28C55.96 12.84 55.72 13.3067 55.48 13.68H49.12ZM34.96 13.68C35.2 13.28 35.4533 12.8267 35.72 12.32C35.9867 11.8133 36.2267 11.2933 36.44 10.76C36.68 10.2267 36.88 9.70666 37.04 9.19999C37.2267 8.69332 37.3733 8.23999 37.48 7.83999H32.56V0.23999H43.52V6.39999C43.52 7.09332 43.44 7.78666 43.28 8.47999C43.1467 9.17332 42.96 9.83999 42.72 10.48C42.5067 11.12 42.2667 11.72 42 12.28C41.76 12.84 41.5333 13.3067 41.32 13.68H34.96Z" fill="#D3D2F6"/>
</svg>
